<svg width="22" height="23" viewBox="0 0 22 23" fill="none" xmlns="http://www.w3.org/2000/svg">
<path fill-rule="evenodd" clip-rule="evenodd" d="M11 6.55591C9.34315 6.55591 8 5.21276 8 3.55591C8 1.89905 9.34315 0.555908 11 0.555908C12.6569 0.555908 14 1.89905 14 3.55591C14 5.21276 12.6569 6.55591 11 6.55591ZM11 4.55591C11.5523 4.55591 12 4.10819 12 3.55591C12 3.00362 11.5523 2.55591 11 2.55591C10.4477 2.55591 10 3.00362 10 3.55591C10 4.10819 10.4477 4.55591 11 4.55591ZM10 6.55591H12C13.6569 6.55591 15 7.89905 15 9.55591V10.5559C15 12.2128 13.6569 13.5559 12 13.5559H10C8.34315 13.5559 7 12.2128 7 10.5559V9.55591C7 7.89905 8.34315 6.55591 10 6.55591ZM10 8.55591C9.44771 8.55591 9 9.00362 9 9.55591V10.5559C9 11.1082 9.44771 11.5559 10 11.5559H12C12.5523 11.5559 13 11.1082 13 10.5559V9.55591C13 9.00362 12.5523 8.55591 12 8.55591H10ZM18 15.5559C16.3431 15.5559 15 14.2128 15 12.5559C15 10.8991 16.3431 9.55591 18 9.55591C19.6569 9.55591 21 10.8991 21 12.5559C21 14.2128 19.6569 15.5559 18 15.5559ZM18 13.5559C18.5523 13.5559 19 13.1082 19 12.5559C19 12.0036 18.5523 11.5559 18 11.5559C17.4477 11.5559 17 12.0036 17 12.5559C17 13.1082 17.4477 13.5559 18 13.5559ZM17 15.5559H19C20.6569 15.5559 22 16.8991 22 18.5559V19.5559C22 21.2128 20.6569 22.5559 19 22.5559H17C15.3431 22.5559 14 21.2128 14 19.5559V18.5559C14 16.8991 15.3431 15.5559 17 15.5559ZM17 17.5559C16.4477 17.5559 16 18.0036 16 18.5559V19.5559C16 20.1082 16.4477 20.5559 17 20.5559H19C19.5523 20.5559 20 20.1082 20 19.5559V18.5559C20 18.0036 19.5523 17.5559 19 17.5559H17ZM4 15.5559C2.34315 15.5559 1 14.2128 1 12.5559C1 10.8991 2.34315 9.55591 4 9.55591C5.65685 9.55591 7 10.8991 7 12.5559C7 14.2128 5.65685 15.5559 4 15.5559ZM4 13.5559C4.55228 13.5559 5 13.1082 5 12.5559C5 12.0036 4.55228 11.5559 4 11.5559C3.44772 11.5559 3 12.0036 3 12.5559C3 13.1082 3.44772 13.5559 4 13.5559ZM3 15.5559H5C6.65685 15.5559 8 16.8991 8 18.5559V19.5559C8 21.2128 6.65685 22.5559 5 22.5559H3C1.34315 22.5559 0 21.2128 0 19.5559V18.5559C0 16.8991 1.34315 15.5559 3 15.5559ZM3 17.5559C2.44772 17.5559 2 18.0036 2 18.5559V19.5559C2 20.1082 2.44772 20.5559 3 20.5559H5C5.55228 20.5559 6 20.1082 6 19.5559V18.5559C6 18.0036 5.55228 17.5559 5 17.5559H3Z" fill="#92929D"/>
</svg>
