<svg width="22" height="20" viewBox="0 0 22 20" fill="none" xmlns="http://www.w3.org/2000/svg">
<path fill-rule="evenodd" clip-rule="evenodd" d="M11 2.12905L11.2215 1.9013C13.6871 -0.633767 17.6965 -0.633767 20.1621 1.9013C22.6126 4.42082 22.6126 8.49457 20.1621 11.0141L12.4337 18.9602C11.6636 19.752 10.3974 19.7696 9.60556 18.9994C9.58574 18.98 9.58574 18.98 9.56629 18.9602L1.83787 11.0141C-0.612625 8.49457 -0.612625 4.42082 1.83787 1.9013C4.3035 -0.633767 8.31287 -0.633767 10.7785 1.9013L11 2.12905ZM18.7284 9.61964C20.4239 7.87644 20.4239 5.03895 18.7284 3.29574C17.0481 1.56809 14.3355 1.56809 12.6552 3.29574L11.7169 4.26053C11.3242 4.66424 10.6758 4.66424 10.2831 4.26053L9.34478 3.29574C7.66445 1.56809 4.95192 1.56809 3.27159 3.29574C1.57614 5.03895 1.57614 7.87644 3.27159 9.61964L11 17.5657L18.7284 9.61964Z" fill="#92929D"/>
</svg>
