<svg width="23" height="23" viewBox="0 0 23 23" fill="none" xmlns="http://www.w3.org/2000/svg">
<path fill-rule="evenodd" clip-rule="evenodd" d="M22 14.1727V18.1118C22 20.321 20.2091 22.1118 18 22.1118H4C1.79086 22.1118 0 20.321 0 18.1118V4.11182C0 1.90268 1.79086 0.111816 4 0.111816H18C20.2091 0.111816 22 1.90268 22 4.11182V14.0509C22.0025 14.0915 22.0025 14.1322 22 14.1727ZM20 14.5243L16.0001 10.5259L12.2201 14.3059L17.4454 20.1118H18C19.1046 20.1118 20 19.2164 20 18.1118V14.5243ZM20 11.6964V4.11182C20 3.00725 19.1046 2.11182 18 2.11182H4C2.89543 2.11182 2 3.00725 2 4.11182V15.6976L7.29289 10.4047C7.69802 9.99959 8.36002 10.017 8.74329 10.4429L10.8803 12.8173L15.2929 8.40471C15.6834 8.01424 16.3164 8.01418 16.707 8.40458L20 11.6964ZM14.7546 20.1118L7.96181 12.5642L2.03576 18.4903C2.21265 19.4139 3.02482 20.1118 4 20.1118H14.7546ZM7.5 8.11182C6.11929 8.11182 5 6.99253 5 5.61182C5 4.2311 6.11929 3.11182 7.5 3.11182C8.88071 3.11182 10 4.2311 10 5.61182C10 6.99253 8.88071 8.11182 7.5 8.11182ZM7.5 6.11182C7.77614 6.11182 8 5.88796 8 5.61182C8 5.33567 7.77614 5.11182 7.5 5.11182C7.22386 5.11182 7 5.33567 7 5.61182C7 5.88796 7.22386 6.11182 7.5 6.11182Z" fill="#92929D"/>
</svg>
